<svg width="30" height="30" viewBox="0 0 30 30" fill="none" xmlns="http://www.w3.org/2000/svg">
<path fill-rule="evenodd" clip-rule="evenodd" d="M14.9999 0.333984C6.89992 0.333984 0.333252 6.90065 0.333252 15.0007C0.333252 23.1006 6.89992 29.6673 14.9999 29.6673C23.0999 29.6673 29.6666 23.1006 29.6666 15.0007C29.6666 6.90065 23.0999 0.333984 14.9999 0.333984ZM12.0573 10.61C11.8144 10.3585 11.68 10.0217 11.683 9.67212C11.6861 9.32252 11.8263 8.9881 12.0735 8.74089C12.3207 8.49368 12.6551 8.35346 13.0047 8.35042C13.3543 8.34738 13.6911 8.48177 13.9426 8.72465L19.2759 14.058C19.5259 14.308 19.6663 14.6471 19.6663 15.0007C19.6663 15.3542 19.5259 15.6933 19.2759 15.9433L13.9426 21.2767C13.6911 21.5195 13.3543 21.6539 13.0047 21.6509C12.6551 21.6478 12.3207 21.5076 12.0735 21.2604C11.8263 21.0132 11.6861 20.6788 11.683 20.3292C11.68 19.9796 11.8144 19.6428 12.0573 19.3913L16.4479 15.0007L12.0573 10.61Z" fill="#1F1B1C"/>
</svg>
