<svg width="22" height="22" viewBox="0 0 22 22" fill="none" xmlns="http://www.w3.org/2000/svg">
<path fill-rule="evenodd" clip-rule="evenodd" d="M18.4246 3.57538C20.3938 5.54451 21.5 8.21523 21.5 11C21.5 13.7848 20.3938 16.4555 18.4246 18.4246C16.4555 20.3938 13.7848 21.5 11 21.5C8.21523 21.5 5.54451 20.3938 3.57538 18.4246C1.60625 16.4555 0.5 13.7848 0.5 11C0.499999 8.21523 1.60625 5.54451 3.57538 3.57538C5.54451 1.60625 8.21523 0.499999 11 0.499999C13.7848 0.499999 16.4555 1.60625 18.4246 3.57538ZM11.9005 6.65023L11.9005 10.0995L15.3498 10.0995C15.468 10.0995 15.5851 10.1228 15.6944 10.168C15.8036 10.2133 15.9029 10.2796 15.9865 10.3632C16.0701 10.4469 16.1365 10.5461 16.1817 10.6554C16.227 10.7646 16.2503 10.8817 16.2503 11C16.2503 11.1183 16.227 11.2354 16.1817 11.3446C16.1365 11.4539 16.0701 11.5531 15.9865 11.6367C15.9029 11.7204 15.8036 11.7867 15.6944 11.832C15.5851 11.8772 15.468 11.9005 15.3498 11.9005H11.9005L11.9005 15.3498C11.9005 15.468 11.8772 15.5851 11.832 15.6944C11.7867 15.8036 11.7204 15.9029 11.6368 15.9865C11.5531 16.0701 11.4539 16.1365 11.3446 16.1817C11.2354 16.227 11.1183 16.2503 11 16.2503C10.8817 16.2503 10.7646 16.227 10.6554 16.1817C10.5461 16.1365 10.4469 16.0701 10.3632 15.9865C10.2796 15.9029 10.2133 15.8036 10.168 15.6944C10.1228 15.5851 10.0995 15.468 10.0995 15.3498L10.0995 11.9005H6.65023C6.53198 11.9005 6.41488 11.8772 6.30563 11.832C6.19637 11.7867 6.0971 11.7204 6.01348 11.6367C5.92986 11.5531 5.86353 11.4539 5.81828 11.3446C5.77302 11.2354 5.74973 11.1183 5.74973 11C5.74973 10.8817 5.77302 10.7646 5.81828 10.6554C5.86353 10.5461 5.92986 10.4469 6.01348 10.3632C6.0971 10.2796 6.19637 10.2133 6.30563 10.168C6.41488 10.1228 6.53198 10.0995 6.65023 10.0995L10.0995 10.0995L10.0995 6.65023C10.0995 6.4114 10.1944 6.18236 10.3632 6.01348C10.5321 5.8446 10.7612 5.74973 11 5.74973C11.2388 5.74973 11.4679 5.8446 11.6368 6.01348C11.8056 6.18236 11.9005 6.4114 11.9005 6.65023Z" fill="#1F1B1C"/>
</svg>
