<svg width="30" height="30" viewBox="0 0 30 30" fill="none" xmlns="http://www.w3.org/2000/svg">
<path fill-rule="evenodd" clip-rule="evenodd" d="M14.9998 0.333984C23.0998 0.333984 29.6665 6.90065 29.6665 15.0007C29.6665 23.1006 23.0998 29.6673 14.9998 29.6673C6.89984 29.6673 0.333172 23.1006 0.333172 15.0007C0.333172 6.90065 6.89984 0.333984 14.9998 0.333984ZM17.9425 10.61C18.1854 10.3585 18.3198 10.0217 18.3167 9.67212C18.3137 9.32252 18.1735 8.9881 17.9263 8.74089C17.6791 8.49368 17.3446 8.35346 16.995 8.35042C16.6454 8.34738 16.3086 8.48177 16.0572 8.72465L10.7238 14.058C10.4739 14.308 10.3335 14.6471 10.3335 15.0007C10.3335 15.3542 10.4739 15.6933 10.7238 15.9433L16.0572 21.2767C16.3086 21.5195 16.6454 21.6539 16.995 21.6509C17.3446 21.6478 17.6791 21.5076 17.9263 21.2604C18.1735 21.0132 18.3137 20.6788 18.3167 20.3292C18.3198 19.9796 18.1854 19.6428 17.9425 19.3913L13.5518 15.0007L17.9425 10.61Z" fill="#1F1B1C"/>
</svg>
