<svg width="30" height="30" viewBox="0 0 30 30" fill="none" xmlns="http://www.w3.org/2000/svg">
<path d="M29.6673 15.0007C29.6673 18.8905 28.1221 22.621 25.3715 25.3715C22.621 28.1221 18.8905 29.6673 15.0007 29.6673C11.1108 29.6673 7.38028 28.1221 4.62975 25.3715C1.87922 22.621 0.333984 18.8905 0.333984 15.0007C0.333984 11.1108 1.87922 7.38028 4.62975 4.62975C7.38028 1.87922 11.1108 0.333984 15.0007 0.333984C18.8905 0.333984 22.621 1.87922 25.3715 4.62975C28.1221 7.38028 29.6673 11.1108 29.6673 15.0007ZM12.7823 9.67115C12.6453 9.57356 12.484 9.51558 12.3161 9.50356C12.1483 9.49154 11.9804 9.52594 11.8308 9.603C11.6813 9.68006 11.5558 9.7968 11.4681 9.94044C11.3805 10.0841 11.3341 10.2491 11.334 10.4173V19.584C11.3341 19.7522 11.3805 19.9172 11.4681 20.0609C11.5558 20.2045 11.6813 20.3212 11.8308 20.3983C11.9804 20.4754 12.1483 20.5098 12.3161 20.4977C12.484 20.4857 12.6453 20.4277 12.7823 20.3301L19.199 15.7468C19.3178 15.662 19.4147 15.5501 19.4815 15.4203C19.5483 15.2905 19.5832 15.1466 19.5832 15.0007C19.5832 14.8547 19.5483 14.7108 19.4815 14.581C19.4147 14.4512 19.3178 14.3393 19.199 14.2545L12.7823 9.67115Z" fill="#1F1B1C"/>
</svg>
